ffmpeg started on 2025-07-16 at 16:59:11
Report written to "D:\Convert\FFMetrics\reports\ssim_report-6.txt"
Log level: 32
Command line:
ffmpeg -hide_banner -nostdin -i "G:\\\xc0\xed\xe8\xec\xe5\\Shiza\\\xcb\xe5\xe3\xe5\xed\xe4\xe0 \xee \xc3\xf0\xe0\xed\xea\xf0\xe5\xf1\xf2\xe5\\[SHIZA Project] Grancrest Senki TV [15] [nDrOiDze & Lizaveta]_HEVC.mkv" -i "G:\\\xc0\xed\xe8\xec\xe5\\Shiza\\\xcb\xe5\xe3\xe5\xed\xe4\xe0 \xee \xc3\xf0\xe0\xed\xea\xf0\xe5\xf1\xf2\xe5\\[SHIZA Project] Grancrest Senki TV [15] [nDrOiDze & Lizaveta].mkv" -lavfi "[0:v]settb=AVTB,setpts=PTS-STARTPTS,format=pix_fmts=yuv420p10,fps=24000/1001,scale=1280:720:flags=bicubic[main];[1:v]settb=AVTB,setpts=PTS-STARTPTS,format=pix_fmts=yuv420p,fps=24000/1001,scale=1280:720:flags=bicubic[ref];[main][ref]ssim=eof_action=endall:stats_file='D\\:/Convert/FFMetrics/logs/ssim_logfile-6.txt'" -f null -
Input #0, matroska,webm, from 'G:\Аниме\Shiza\Легенда о Гранкресте\[SHIZA Project] Grancrest Senki TV [15] [nDrOiDze & Lizaveta]_HEVC.mkv':
  Metadata:
    ENCODER         : Lavf61.7.100
  Duration: 00:23:40.39, start: -0.021000, bitrate: 640 kb/s
  Stream #0:0(jpn): Video: hevc (Main 10), yuv420p10le(tv, bt709, progressive), 1280x720 [SAR 1:1 DAR 16:9], 23.81 fps, 23.81 tbr, 1k tbn (default)
      Metadata:
        title           : [SHIZA Project] Grancrest Senki TV [WEBRip]
        ENCODER         : Lavc61.19.100 libx265
        BPS             : 441278
        DURATION        : 00:23:40.062000000
        NUMBER_OF_FRAMES: 34048
        NUMBER_OF_BYTES : 78330329
        _STATISTICS_WRITING_APP: mkvpropedit v66.0.0 ('Josie') 64-bit
        _STATISTICS_WRITING_DATE_UTC: 2025-07-14 10:21:50
        _STATISTICS_TAGS: BPS DURATION NUMBER_OF_FRAMES NUMBER_OF_BYTES
  Stream #0:1(rus): Audio: aac (LC), 48000 Hz, stereo, fltp (default)
      Metadata:
        title           : nDrOiDze & Lizaveta
        ENCODER         : Lavc61.19.100 aac
        BPS             : 195026
        DURATION        : 00:23:40.373000000
        NUMBER_OF_FRAMES: 66581
        NUMBER_OF_BYTES : 34626329
        _STATISTICS_WRITING_APP: mkvpropedit v66.0.0 ('Josie') 64-bit
        _STATISTICS_WRITING_DATE_UTC: 2025-07-14 10:21:50
        _STATISTICS_TAGS: BPS DURATION NUMBER_OF_FRAMES NUMBER_OF_BYTES
Input #1, matroska,webm, from 'G:\Аниме\Shiza\Легенда о Гранкресте\[SHIZA Project] Grancrest Senki TV [15] [nDrOiDze & Lizaveta].mkv':
  Metadata:
    encoder         : libebml v1.3.4 + libmatroska v1.4.5
    creation_time   : 2018-05-13T18:26:32.000000Z
  Duration: 00:23:40.37, start: 0.000000, bitrate: 1968 kb/s
  Stream #1:0(jpn): Video: h264 (High), yuv420p(progressive), 1280x720 [SAR 1:1 DAR 16:9], 23.81 fps, 23.81 tbr, 1k tbn (default)
      Metadata:
        title           : [SHIZA Project] Grancrest Senki TV [WEBRip]
        BPS             : 1770316
        BPS-eng         : 1770316
        DURATION        : 00:23:40.045000000
        DURATION-eng    : 00:23:40.045000000
        NUMBER_OF_FRAMES: 34048
        NUMBER_OF_FRAMES-eng: 34048
        NUMBER_OF_BYTES : 314241107
        NUMBER_OF_BYTES-eng: 314241107
        _STATISTICS_WRITING_APP: mkvmerge v10.0.0 ('To Drown In You') 64bit
        _STATISTICS_WRITING_APP-eng: mkvmerge v10.0.0 ('To Drown In You') 64bit
        _STATISTICS_WRITING_DATE_UTC: 2018-05-13 18:26:32
        _STATISTICS_WRITING_DATE_UTC-eng: 2018-05-13 18:26:32
        _STATISTICS_TAGS: BPS DURATION NUMBER_OF_FRAMES NUMBER_OF_BYTES
        _STATISTICS_TAGS-eng: BPS DURATION NUMBER_OF_FRAMES NUMBER_OF_BYTES
  Stream #1:1(rus): Audio: aac (LC), 48000 Hz, stereo, fltp (default)
      Metadata:
        title           : nDrOiDze & Lizaveta
        BPS             : 194064
        BPS-eng         : 194064
        DURATION        : 00:23:40.373000000
        DURATION-eng    : 00:23:40.373000000
        NUMBER_OF_FRAMES: 66580
        NUMBER_OF_FRAMES-eng: 66580
        NUMBER_OF_BYTES : 34455464
        NUMBER_OF_BYTES-eng: 34455464
        _STATISTICS_WRITING_APP: mkvmerge v10.0.0 ('To Drown In You') 64bit
        _STATISTICS_WRITING_APP-eng: mkvmerge v10.0.0 ('To Drown In You') 64bit
        _STATISTICS_WRITING_DATE_UTC: 2018-05-13 18:26:32
        _STATISTICS_WRITING_DATE_UTC-eng: 2018-05-13 18:26:32
        _STATISTICS_TAGS: BPS DURATION NUMBER_OF_FRAMES NUMBER_OF_BYTES
        _STATISTICS_TAGS-eng: BPS DURATION NUMBER_OF_FRAMES NUMBER_OF_BYTES
  Stream #1:2: Attachment: ttf
      Metadata:
        filename        : OpenSans-Semibold.ttf
        mimetype        : application/x-truetype-font
Stream mapping:
  Stream #0:0 (hevc) -> settb:default
  Stream #1:0 (h264) -> settb:default
  ssim:default -> Stream #0:0 (wrapped_avframe)
  Stream #0:1 -> #0:1 (aac (native) -> pcm_s16le (native))
[swscaler @ 000001e30546ffc0] No accelerated colorspace conversion found from yuv420p to bgr48le.
[swscaler @ 000001e3056b4e40] No accelerated colorspace conversion found from yuv420p to bgr48le.
[swscaler @ 000001e3057654c0] No accelerated colorspace conversion found from yuv420p to bgr48le.
[swscaler @ 000001e30595d740] No accelerated colorspace conversion found from yuv420p to bgr48le.
[swscaler @ 000001e3059fae00] No accelerated colorspace conversion found from yuv420p to bgr48le.
[swscaler @ 000001e305c24f80] No accelerated colorspace conversion found from yuv420p to bgr48le.
[swscaler @ 000001e305cc7b40] No accelerated colorspace conversion found from yuv420p to bgr48le.
[swscaler @ 000001e305d60740] No accelerated colorspace conversion found from yuv420p to bgr48le.
[swscaler @ 000001e305dbc040] No accelerated colorspace conversion found from yuv420p to bgr48le.
[swscaler @ 000001e305e39040] No accelerated colorspace conversion found from yuv420p to bgr48le.
[swscaler @ 000001e305ea2040] No accelerated colorspace conversion found from yuv420p to bgr48le.
[swscaler @ 000001e305efd040] No accelerated colorspace conversion found from yuv420p to bgr48le.
[swscaler @ 000001e305f6a040] No accelerated colorspace conversion found from yuv420p to bgr48le.
[swscaler @ 000001e305fba9c0] No accelerated colorspace conversion found from yuv420p to bgr48le.
[swscaler @ 000001e30a5c2040] No accelerated colorspace conversion found from yuv420p to bgr48le.
[swscaler @ 000001e30a62d040] No accelerated colorspace conversion found from yuv420p to bgr48le.
Output #0, null, to 'pipe:':
  Metadata:
    encoder         : Lavf61.7.100
  Stream #0:0: Video: wrapped_avframe, yuv420p10le(tv, bt709, progressive), 1280x720 [SAR 1:1 DAR 16:9], q=2-31, 200 kb/s, 23.98 fps, 23.98 tbn
      Metadata:
        encoder         : Lavc61.19.100 wrapped_avframe
  Stream #0:1(rus): Audio: pcm_s16le, 48000 Hz, stereo, s16, 1536 kb/s (default)
      Metadata:
        title           : nDrOiDze & Lizaveta
        _STATISTICS_TAGS: BPS DURATION NUMBER_OF_FRAMES NUMBER_OF_BYTES
        BPS             : 195026
        DURATION        : 00:23:40.373000000
        NUMBER_OF_FRAMES: 66581
        NUMBER_OF_BYTES : 34626329
        _STATISTICS_WRITING_APP: mkvpropedit v66.0.0 ('Josie') 64-bit
        _STATISTICS_WRITING_DATE_UTC: 2025-07-14 10:21:50
        encoder         : Lavc61.19.100 pcm_s16le
frame=   78 fps=0.0 q=-0.0 size=N/A time=00:00:03.25 bitrate=N/A speed=6.32x    frame=  171 fps=167 q=-0.0 size=N/A time=00:00:07.13 bitrate=N/A speed=6.97x    frame=  258 fps=167 q=-0.0 size=N/A time=00:00:10.76 bitrate=N/A speed=6.95x    frame=  357 fps=174 q=-0.0 size=N/A time=00:00:14.88 bitrate=N/A speed=7.25x    frame=  453 fps=176 q=-0.0 size=N/A time=00:00:18.89 bitrate=N/A speed=7.33x    frame=  543 fps=176 q=-0.0 size=N/A time=00:00:22.64 bitrate=N/A speed=7.35x    frame=  643 fps=178 q=-0.0 size=N/A time=00:00:26.81 bitrate=N/A speed=7.43x    frame=  735 fps=178 q=-0.0 size=N/A time=00:00:30.65 bitrate=N/A speed=7.44x    frame=  831 fps=179 q=-0.0 size=N/A time=00:00:34.65 bitrate=N/A speed=7.48x    frame=  916 fps=178 q=-0.0 size=N/A time=00:00:38.20 bitrate=N/A speed=7.43x    frame= 1018 fps=180 q=-0.0 size=N/A time=00:00:42.45 bitrate=N/A speed=7.49x    frame= 1110 fps=180 q=-0.0 size=N/A time=00:00:46.29 bitrate=N/A speed= 7.5x    frame= 1205 fps=180 q=-0.0 size=N/A time=00:00:50.25 bitrate=N/A speed= 7.5x    frame= 1299 fps=180 q=-0.0 size=N/A time=00:00:54.17 bitrate=N/A speed= 7.5x    frame= 1393 fps=180 q=-0.0 size=N/A time=00:00:58.09 bitrate=N/A speed=7.52x    frame= 1480 fps=179 q=-0.0 size=N/A time=00:01:01.72 bitrate=N/A speed=7.48x    frame= 1576 fps=180 q=-0.0 size=N/A time=00:01:05.73 bitrate=N/A speed= 7.5x    frame= 1676 fps=181 q=-0.0 size=N/A time=00:01:09.90 bitrate=N/A speed=7.53x    frame= 1762 fps=180 q=-0.0 size=N/A time=00:01:13.49 bitrate=N/A speed= 7.5x    frame= 1865 fps=181 q=-0.0 size=N/A time=00:01:17.78 bitrate=N/A speed=7.54x    frame= 1953 fps=181 q=-0.0 size=N/A time=00:01:21.45 bitrate=N/A speed=7.53x    frame= 2047 fps=180 q=-0.0 size=N/A time=00:01:25.37 bitrate=N/A speed=7.53x    frame= 2137 fps=180 q=-0.0 size=N/A time=00:01:29.13 bitrate=N/A speed=7.52x    frame= 2234 fps=181 q=-0.0 size=N/A time=00:01:33.17 bitrate=N/A speed=7.53x    frame= 2324 fps=180 q=-0.0 size=N/A time=00:01:36.93 bitrate=N/A speed=7.52x    frame= 2418 fps=180 q=-0.0 size=N/A time=00:01:40.85 bitrate=N/A speed=7.52x    frame= 2508 fps=180 q=-0.0 size=N/A time=00:01:44.60 bitrate=N/A speed=7.52x    frame= 2603 fps=180 q=-0.0 size=N/A time=00:01:48.56 bitrate=N/A speed=7.52x    frame= 2694 fps=180 q=-0.0 size=N/A time=00:01:52.36 bitrate=N/A speed=7.52x    frame= 2791 fps=180 q=-0.0 size=N/A time=00:01:56.40 bitrate=N/A speed=7.52x    frame= 2883 fps=180 q=-0.0 size=N/A time=00:02:00.24 bitrate=N/A speed=7.52x    frame= 2977 fps=180 q=-0.0 size=N/A time=00:02:04.16 bitrate=N/A speed=7.52x    frame= 3071 fps=181 q=-0.0 size=N/A time=00:02:08.08 bitrate=N/A speed=7.53x    frame= 3163 fps=181 q=-0.0 size=N/A time=00:02:11.92 bitrate=N/A speed=7.53x    frame= 3258 fps=181 q=-0.0 size=N/A time=00:02:15.88 bitrate=N/A speed=7.53x    frame= 3352 fps=181 q=-0.0 size=N/A time=00:02:19.80 bitrate=N/A speed=7.53x    frame= 3440 fps=180 q=-0.0 size=N/A time=00:02:23.47 bitrate=N/A speed=7.52x    frame= 3539 fps=181 q=-0.0 size=N/A time=00:02:27.60 bitrate=N/A speed=7.53x    frame= 3632 fps=181 q=-0.0 size=N/A time=00:02:31.48 bitrate=N/A speed=7.54x    frame= 3726 fps=181 q=-0.0 size=N/A time=00:02:35.40 bitrate=N/A speed=7.53x    frame= 3818 fps=181 q=-0.0 size=N/A time=00:02:39.24 bitrate=N/A speed=7.54x    frame= 3911 fps=181 q=-0.0 size=N/A time=00:02:43.12 bitrate=N/A speed=7.53x    frame= 3993 fps=180 q=-0.0 size=N/A time=00:02:46.54 bitrate=N/A speed=7.51x    frame= 4098 fps=181 q=-0.0 size=N/A time=00:02:50.92 bitrate=N/A speed=7.53x    frame= 4190 fps=181 q=-0.0 size=N/A time=00:02:54.75 bitrate=N/A speed=7.53x    frame= 4280 fps=180 q=-0.0 size=N/A time=00:02:58.51 bitrate=N/A speed=7.53x    frame= 4367 fps=180 q=-0.0 size=N/A time=00:03:02.14 bitrate=N/A speed=7.52x    frame= 4466 fps=180 q=-0.0 size=N/A time=00:03:06.26 bitrate=N/A speed=7.53x    frame= 4563 fps=181 q=-0.0 size=N/A time=00:03:10.31 bitrate=N/A speed=7.53x    frame= 4658 fps=181 q=-0.0 size=N/A time=00:03:14.27 bitrate=N/A speed=7.54x    frame= 4752 fps=181 q=-0.0 size=N/A time=00:03:18.19 bitrate=N/A speed=7.54x    frame= 4848 fps=181 q=-0.0 size=N/A time=00:03:22.20 bitrate=N/A speed=7.54x    frame= 4943 fps=181 q=-0.0 size=N/A time=00:03:26.16 bitrate=N/A speed=7.55x    frame= 5036 fps=181 q=-0.0 size=N/A time=00:03:30.04 bitrate=N/A speed=7.54x    frame= 5131 fps=181 q=-0.0 size=N/A time=00:03:34.00 bitrate=N/A speed=7.55x    frame= 5226 fps=181 q=-0.0 size=N/A time=00:03:37.96 bitrate=N/A speed=7.55x    frame= 5317 fps=181 q=-0.0 size=N/A time=00:03:41.76 bitrate=N/A speed=7.55x    frame= 5403 fps=181 q=-0.0 size=N/A time=00:03:45.35 bitrate=N/A speed=7.54x    frame= 5502 fps=181 q=-0.0 size=N/A time=00:03:49.47 bitrate=N/A speed=7.55x    frame= 5597 fps=181 q=-0.0 size=N/A time=00:03:53.44 bitrate=N/A speed=7.55x    frame= 5692 fps=181 q=-0.0 size=N/A time=00:03:57.40 bitrate=N/A speed=7.55x    frame= 5787 fps=181 q=-0.0 size=N/A time=00:04:01.36 bitrate=N/A speed=7.55x    frame= 5882 fps=181 q=-0.0 size=N/A time=00:04:05.32 bitrate=N/A speed=7.55x    frame= 5976 fps=181 q=-0.0 size=N/A time=00:04:09.24 bitrate=N/A speed=7.55x    frame= 6072 fps=181 q=-0.0 size=N/A time=00:04:13.25 bitrate=N/A speed=7.56x    frame= 6164 fps=181 q=-0.0 size=N/A time=00:04:17.09 bitrate=N/A speed=7.56x    frame= 6258 fps=181 q=-0.0 size=N/A time=00:04:21.01 bitrate=N/A speed=7.55x    frame= 6348 fps=181 q=-0.0 size=N/A time=00:04:24.76 bitrate=N/A speed=7.55x    frame= 6443 fps=181 q=-0.0 size=N/A time=00:04:28.72 bitrate=N/A speed=7.55x    frame= 6533 fps=181 q=-0.0 size=N/A time=00:04:32.48 bitrate=N/A speed=7.55x    frame= 6628 fps=181 q=-0.0 size=N/A time=00:04:36.44 bitrate=N/A speed=7.55x    frame= 6715 fps=181 q=-0.0 size=N/A time=00:04:40.07 bitrate=N/A speed=7.55x    frame= 6812 fps=181 q=-0.0 size=N/A time=00:04:44.11 bitrate=N/A speed=7.55x    frame= 6905 fps=181 q=-0.0 size=N/A time=00:04:47.99 bitrate=N/A speed=7.55x    frame= 6991 fps=181 q=-0.0 size=N/A time=00:04:51.58 bitrate=N/A speed=7.54x    frame= 7093 fps=181 q=-0.0 size=N/A time=00:04:55.83 bitrate=N/A speed=7.55x    frame= 7186 fps=181 q=-0.0 size=N/A time=00:04:59.71 bitrate=N/A speed=7.55x    frame= 7281 fps=181 q=-0.0 size=N/A time=00:05:03.67 bitrate=N/A speed=7.55x    frame= 7366 fps=181 q=-0.0 size=N/A time=00:05:07.22 bitrate=N/A speed=7.54x    frame= 7465 fps=181 q=-0.0 size=N/A time=00:05:11.35 bitrate=N/A speed=7.54x    frame= 7558 fps=181 q=-0.0 size=N/A time=00:05:15.23 bitrate=N/A speed=7.55x    frame= 7652 fps=181 q=-0.0 size=N/A time=00:05:19.15 bitrate=N/A speed=7.55x    frame= 7749 fps=181 q=-0.0 size=N/A time=00:05:23.19 bitrate=N/A speed=7.55x    frame= 7846 fps=181 q=-0.0 size=N/A time=00:05:27.24 bitrate=N/A speed=7.55x    frame= 7936 fps=181 q=-0.0 size=N/A time=00:05:30.99 bitrate=N/A speed=7.55x    frame= 8033 fps=181 q=-0.0 size=N/A time=00:05:35.04 bitrate=N/A speed=7.55x    frame= 8122 fps=181 q=-0.0 size=N/A time=00:05:38.75 bitrate=N/A speed=7.55x    frame= 8220 fps=181 q=-0.0 size=N/A time=00:05:42.84 bitrate=N/A speed=7.55x    frame= 8315 fps=181 q=-0.0 size=N/A time=00:05:46.80 bitrate=N/A speed=7.55x    frame= 8408 fps=181 q=-0.0 size=N/A time=00:05:50.68 bitrate=N/A speed=7.55x    frame= 8504 fps=181 q=-0.0 size=N/A time=00:05:54.68 bitrate=N/A speed=7.55x    frame= 8598 fps=181 q=-0.0 size=N/A time=00:05:58.60 bitrate=N/A speed=7.56x    frame= 8693 fps=181 q=-0.0 size=N/A time=00:06:02.57 bitrate=N/A speed=7.56x    frame= 8789 fps=181 q=-0.0 size=N/A time=00:06:06.57 bitrate=N/A speed=7.56x    frame= 8879 fps=181 q=-0.0 size=N/A time=00:06:10.32 bitrate=N/A speed=7.56x    frame= 8973 fps=181 q=-0.0 size=N/A time=00:06:14.24 bitrate=N/A speed=7.56x    frame= 9062 fps=181 q=-0.0 size=N/A time=00:06:17.96 bitrate=N/A speed=7.55x    frame= 9157 fps=181 q=-0.0 size=N/A time=00:06:21.92 bitrate=N/A speed=7.55x    frame= 9245 fps=181 q=-0.0 size=N/A time=00:06:25.59 bitrate=N/A speed=7.55x    frame= 9342 fps=181 q=-0.0 size=N/A time=00:06:29.63 bitrate=N/A speed=7.55x    frame= 9439 fps=181 q=-0.0 size=N/A time=00:06:33.68 bitrate=N/A speed=7.55x    frame= 9521 fps=181 q=-0.0 size=N/A time=00:06:37.10 bitrate=N/A speed=7.55x    frame= 9620 fps=181 q=-0.0 size=N/A time=00:06:41.23 bitrate=N/A speed=7.55x    frame= 9718 fps=181 q=-0.0 size=N/A time=00:06:45.32 bitrate=N/A speed=7.55x    frame= 9817 fps=181 q=-0.0 size=N/A time=00:06:49.45 bitrate=N/A speed=7.56x    frame= 9909 fps=181 q=-0.0 size=N/A time=00:06:53.28 bitrate=N/A speed=7.56x    frame=10002 fps=181 q=-0.0 size=N/A time=00:06:57.16 bitrate=N/A speed=7.56x    frame=10093 fps=181 q=-0.0 size=N/A time=00:07:00.96 bitrate=N/A speed=7.56x    frame=10175 fps=181 q=-0.0 size=N/A time=00:07:04.38 bitrate=N/A speed=7.55x    frame=10276 fps=181 q=-0.0 size=N/A time=00:07:08.59 bitrate=N/A speed=7.55x    frame=10377 fps=181 q=-0.0 size=N/A time=00:07:12.80 bitrate=N/A speed=7.56x    frame=10470 fps=181 q=-0.0 size=N/A time=00:07:16.68 bitrate=N/A speed=7.56x    frame=10564 fps=181 q=-0.0 size=N/A time=00:07:20.60 bitrate=N/A speed=7.56x    frame=10655 fps=181 q=-0.0 size=N/A time=00:07:24.40 bitrate=N/A speed=7.56x    frame=10748 fps=181 q=-0.0 size=N/A time=00:07:28.28 bitrate=N/A speed=7.56x    frame=10842 fps=181 q=-0.0 size=N/A time=00:07:32.20 bitrate=N/A speed=7.56x    frame=10936 fps=181 q=-0.0 size=N/A time=00:07:36.12 bitrate=N/A speed=7.56x    frame=11028 fps=181 q=-0.0 size=N/A time=00:07:39.95 bitrate=N/A speed=7.56x    frame=11117 fps=181 q=-0.0 size=N/A time=00:07:43.67 bitrate=N/A speed=7.55x    frame=11219 fps=181 q=-0.0 size=N/A time=00:07:47.92 bitrate=N/A speed=7.56x    frame=11312 fps=181 q=-0.0 size=N/A time=00:07:51.80 bitrate=N/A speed=7.56x    frame=11407 fps=181 q=-0.0 size=N/A time=00:07:55.76 bitrate=N/A speed=7.56x    frame=11499 fps=181 q=-0.0 size=N/A time=00:07:59.60 bitrate=N/A speed=7.56x    frame=11596 fps=181 q=-0.0 size=N/A time=00:08:03.64 bitrate=N/A speed=7.56x    frame=11693 fps=181 q=-0.0 size=N/A time=00:08:07.69 bitrate=N/A speed=7.56x    frame=11786 fps=181 q=-0.0 size=N/A time=00:08:11.57 bitrate=N/A speed=7.56x    frame=11865 fps=181 q=-0.0 size=N/A time=00:08:14.86 bitrate=N/A speed=7.55x    frame=11975 fps=181 q=-0.0 size=N/A time=00:08:19.45 bitrate=N/A speed=7.56x    frame=12070 fps=181 q=-0.0 size=N/A time=00:08:23.41 bitrate=N/A speed=7.57x    frame=12165 fps=181 q=-0.0 size=N/A time=00:08:27.38 bitrate=N/A speed=7.57x    frame=12260 fps=181 q=-0.0 size=N/A time=00:08:31.34 bitrate=N/A speed=7.57x    frame=12355 fps=181 q=-0.0 size=N/A time=00:08:35.30 bitrate=N/A speed=7.57x    frame=12443 fps=181 q=-0.0 size=N/A time=00:08:38.97 bitrate=N/A speed=7.56x    frame=12541 fps=181 q=-0.0 size=N/A time=00:08:43.06 bitrate=N/A speed=7.57x    frame=12641 fps=182 q=-0.0 size=N/A time=00:08:47.23 bitrate=N/A speed=7.57x    frame=12736 fps=182 q=-0.0 size=N/A time=00:08:51.19 bitrate=N/A speed=7.57x    frame=12818 fps=181 q=-0.0 size=N/A time=00:08:54.61 bitrate=N/A speed=7.57x    frame=12922 fps=182 q=-0.0 size=N/A time=00:08:58.95 bitrate=N/A speed=7.57x    frame=13016 fps=182 q=-0.0 size=N/A time=00:09:02.91 bitrate=N/A speed=7.57x    frame=13113 fps=182 q=-0.0 size=N/A time=00:09:06.92 bitrate=N/A speed=7.57x    frame=13206 fps=182 q=-0.0 size=N/A time=00:09:10.80 bitrate=N/A speed=7.57x    frame=13299 fps=182 q=-0.0 size=N/A time=00:09:14.67 bitrate=N/A speed=7.57x    frame=13391 fps=182 q=-0.0 size=N/A time=00:09:18.51 bitrate=N/A speed=7.57x    frame=13480 fps=181 q=-0.0 size=N/A time=00:09:22.22 bitrate=N/A speed=7.57x    frame=13579 fps=182 q=-0.0 size=N/A time=00:09:26.35 bitrate=N/A speed=7.57x    frame=13675 fps=182 q=-0.0 size=N/A time=00:09:30.36 bitrate=N/A speed=7.57x    frame=13754 fps=181 q=-0.0 size=N/A time=00:09:33.65 bitrate=N/A speed=7.57x    frame=13861 fps=182 q=-0.0 size=N/A time=00:09:38.11 bitrate=N/A speed=7.57x    frame=13952 fps=182 q=-0.0 size=N/A time=00:09:41.91 bitrate=N/A speed=7.57x    frame=14044 fps=182 q=-0.0 size=N/A time=00:09:45.75 bitrate=N/A speed=7.57x    frame=14137 fps=181 q=-0.0 size=N/A time=00:09:49.63 bitrate=N/A speed=7.57x    frame=14232 fps=182 q=-0.0 size=N/A time=00:09:53.59 bitrate=N/A speed=7.57x    frame=14325 fps=181 q=-0.0 size=N/A time=00:09:57.47 bitrate=N/A speed=7.57x    frame=14420 fps=182 q=-0.0 size=N/A time=00:10:01.43 bitrate=N/A speed=7.57x    frame=14512 fps=181 q=-0.0 size=N/A time=00:10:05.27 bitrate=N/A speed=7.57x    frame=14606 fps=181 q=-0.0 size=N/A time=00:10:09.19 bitrate=N/A speed=7.57x    frame=14699 fps=181 q=-0.0 size=N/A time=00:10:13.07 bitrate=N/A speed=7.57x    frame=14792 fps=181 q=-0.0 size=N/A time=00:10:16.94 bitrate=N/A speed=7.57x    frame=14890 fps=182 q=-0.0 size=N/A time=00:10:21.03 bitrate=N/A speed=7.57x    frame=14978 fps=181 q=-0.0 size=N/A time=00:10:24.70 bitrate=N/A speed=7.57x    frame=15071 fps=181 q=-0.0 size=N/A time=00:10:28.58 bitrate=N/A speed=7.57x    frame=15170 fps=182 q=-0.0 size=N/A time=00:10:32.71 bitrate=N/A speed=7.57x    frame=15265 fps=182 q=-0.0 size=N/A time=00:10:36.67 bitrate=N/A speed=7.57x    frame=15363 fps=182 q=-0.0 size=N/A time=00:10:40.76 bitrate=N/A speed=7.57x    frame=15455 fps=182 q=-0.0 size=N/A time=00:10:44.60 bitrate=N/A speed=7.57x    frame=15549 fps=182 q=-0.0 size=N/A time=00:10:48.52 bitrate=N/A speed=7.57x    frame=15643 fps=182 q=-0.0 size=N/A time=00:10:52.44 bitrate=N/A speed=7.57x    frame=15729 fps=181 q=-0.0 size=N/A time=00:10:56.03 bitrate=N/A speed=7.57x    frame=15824 fps=181 q=-0.0 size=N/A time=00:10:59.99 bitrate=N/A speed=7.57x    frame=15914 fps=181 q=-0.0 size=N/A time=00:11:03.74 bitrate=N/A speed=7.57x    frame=16003 fps=181 q=-0.0 size=N/A time=00:11:07.45 bitrate=N/A speed=7.56x    frame=16094 fps=181 q=-0.0 size=N/A time=00:11:11.25 bitrate=N/A speed=7.56x    frame=16199 fps=181 q=-0.0 size=N/A time=00:11:15.63 bitrate=N/A speed=7.57x    frame=16292 fps=181 q=-0.0 size=N/A time=00:11:19.51 bitrate=N/A speed=7.57x    frame=16389 fps=181 q=-0.0 size=N/A time=00:11:23.55 bitrate=N/A speed=7.57x    frame=16484 fps=182 q=-0.0 size=N/A time=00:11:27.52 bitrate=N/A speed=7.57x    frame=16565 fps=181 q=-0.0 size=N/A time=00:11:30.89 bitrate=N/A speed=7.56x    frame=16674 fps=182 q=-0.0 size=N/A time=00:11:35.44 bitrate=N/A speed=7.57x    frame=16769 fps=182 q=-0.0 size=N/A time=00:11:39.40 bitrate=N/A speed=7.57x    frame=16862 fps=182 q=-0.0 size=N/A time=00:11:43.28 bitrate=N/A speed=7.57x    frame=16957 fps=182 q=-0.0 size=N/A time=00:11:47.24 bitrate=N/A speed=7.57x    frame=17049 fps=182 q=-0.0 size=N/A time=00:11:51.08 bitrate=N/A speed=7.57x    frame=17139 fps=182 q=-0.0 size=N/A time=00:11:54.83 bitrate=N/A speed=7.57x    frame=17237 fps=182 q=-0.0 size=N/A time=00:11:58.92 bitrate=N/A speed=7.57x    frame=17331 fps=182 q=-0.0 size=N/A time=00:12:02.84 bitrate=N/A speed=7.57x    frame=17425 fps=182 q=-0.0 size=N/A time=00:12:06.76 bitrate=N/A speed=7.57x    frame=17505 fps=181 q=-0.0 size=N/A time=00:12:10.10 bitrate=N/A speed=7.57x    frame=17611 fps=182 q=-0.0 size=N/A time=00:12:14.52 bitrate=N/A speed=7.57x    frame=17705 fps=182 q=-0.0 size=N/A time=00:12:18.44 bitrate=N/A speed=7.57x    frame=17802 fps=182 q=-0.0 size=N/A time=00:12:22.49 bitrate=N/A speed=7.57x    frame=17887 fps=182 q=-0.0 size=N/A time=00:12:26.03 bitrate=N/A speed=7.57x    frame=17988 fps=182 q=-0.0 size=N/A time=00:12:30.24 bitrate=N/A speed=7.57x    frame=18080 fps=182 q=-0.0 size=N/A time=00:12:34.08 bitrate=N/A speed=7.57x    frame=18170 fps=182 q=-0.0 size=N/A time=00:12:37.84 bitrate=N/A speed=7.57x    frame=18273 fps=182 q=-0.0 size=N/A time=00:12:42.13 bitrate=N/A speed=7.58x    frame=18365 fps=182 q=-0.0 size=N/A time=00:12:45.97 bitrate=N/A speed=7.58x    frame=18458 fps=182 q=-0.0 size=N/A time=00:12:49.85 bitrate=N/A speed=7.57x    frame=18556 fps=182 q=-0.0 size=N/A time=00:12:53.93 bitrate=N/A speed=7.58x    frame=18650 fps=182 q=-0.0 size=N/A time=00:12:57.86 bitrate=N/A speed=7.58x    frame=18748 fps=182 q=-0.0 size=N/A time=00:13:01.94 bitrate=N/A speed=7.58x    frame=18836 fps=182 q=-0.0 size=N/A time=00:13:05.61 bitrate=N/A speed=7.58x    frame=18936 fps=182 q=-0.0 size=N/A time=00:13:09.78 bitrate=N/A speed=7.58x    frame=19030 fps=182 q=-0.0 size=N/A time=00:13:13.70 bitrate=N/A speed=7.58x    frame=19125 fps=182 q=-0.0 size=N/A time=00:13:17.67 bitrate=N/A speed=7.58x    frame=19215 fps=182 q=-0.0 size=N/A time=00:13:21.42 bitrate=N/A speed=7.58x    frame=19314 fps=182 q=-0.0 size=N/A time=00:13:25.55 bitrate=N/A speed=7.58x    frame=19410 fps=182 q=-0.0 size=N/A time=00:13:29.55 bitrate=N/A speed=7.58x    frame=19507 fps=182 q=-0.0 size=N/A time=00:13:33.60 bitrate=N/A speed=7.58x    frame=19597 fps=182 q=-0.0 size=N/A time=00:13:37.35 bitrate=N/A speed=7.58x    frame=19693 fps=182 q=-0.0 size=N/A time=00:13:41.36 bitrate=N/A speed=7.58x    frame=19789 fps=182 q=-0.0 size=N/A time=00:13:45.36 bitrate=N/A speed=7.58x    frame=19877 fps=182 q=-0.0 size=N/A time=00:13:49.03 bitrate=N/A speed=7.58x    frame=19977 fps=182 q=-0.0 size=N/A time=00:13:53.20 bitrate=N/A speed=7.58x    frame=20071 fps=182 q=-0.0 size=N/A time=00:13:57.12 bitrate=N/A speed=7.58x    frame=20163 fps=182 q=-0.0 size=N/A time=00:14:00.96 bitrate=N/A speed=7.58x    frame=20257 fps=182 q=-0.0 size=N/A time=00:14:04.88 bitrate=N/A speed=7.58x    frame=20347 fps=182 q=-0.0 size=N/A time=00:14:08.63 bitrate=N/A speed=7.58x    frame=20448 fps=182 q=-0.0 size=N/A time=00:14:12.85 bitrate=N/A speed=7.58x    frame=20541 fps=182 q=-0.0 size=N/A time=00:14:16.73 bitrate=N/A speed=7.58x    frame=20633 fps=182 q=-0.0 size=N/A time=00:14:20.56 bitrate=N/A speed=7.58x    frame=20728 fps=182 q=-0.0 size=N/A time=00:14:24.53 bitrate=N/A speed=7.58x    frame=20821 fps=182 q=-0.0 size=N/A time=00:14:28.40 bitrate=N/A speed=7.58x    frame=20916 fps=182 q=-0.0 size=N/A time=00:14:32.37 bitrate=N/A speed=7.58x    frame=21008 fps=182 q=-0.0 size=N/A time=00:14:36.20 bitrate=N/A speed=7.58x    frame=21098 fps=182 q=-0.0 size=N/A time=00:14:39.96 bitrate=N/A speed=7.58x    frame=21189 fps=182 q=-0.0 size=N/A time=00:14:43.75 bitrate=N/A speed=7.58x    frame=21258 fps=182 q=-0.0 size=N/A time=00:14:46.63 bitrate=N/A speed=7.57x    frame=21351 fps=181 q=-0.0 size=N/A time=00:14:50.51 bitrate=N/A speed=7.57x    frame=21425 fps=181 q=-0.0 size=N/A time=00:14:53.60 bitrate=N/A speed=7.56x    frame=21517 fps=181 q=-0.0 size=N/A time=00:14:57.43 bitrate=N/A speed=7.56x    frame=21602 fps=181 q=-0.0 size=N/A time=00:15:00.98 bitrate=N/A speed=7.56x    frame=21680 fps=181 q=-0.0 size=N/A time=00:15:04.23 bitrate=N/A speed=7.55x    frame=21767 fps=181 q=-0.0 size=N/A time=00:15:07.86 bitrate=N/A speed=7.55x    frame=21856 fps=181 q=-0.0 size=N/A time=00:15:11.57 bitrate=N/A speed=7.55x    frame=21939 fps=181 q=-0.0 size=N/A time=00:15:15.03 bitrate=N/A speed=7.55x    frame=22022 fps=181 q=-0.0 size=N/A time=00:15:18.50 bitrate=N/A speed=7.54x    frame=22106 fps=181 q=-0.0 size=N/A time=00:15:22.00 bitrate=N/A speed=7.54x    frame=22191 fps=181 q=-0.0 size=N/A time=00:15:25.54 bitrate=N/A speed=7.54x    frame=22277 fps=181 q=-0.0 size=N/A time=00:15:29.13 bitrate=N/A speed=7.53x    frame=22357 fps=181 q=-0.0 size=N/A time=00:15:32.47 bitrate=N/A speed=7.53x    frame=22446 fps=181 q=-0.0 size=N/A time=00:15:36.18 bitrate=N/A speed=7.53x    frame=22530 fps=180 q=-0.0 size=N/A time=00:15:39.68 bitrate=N/A speed=7.53x    frame=22613 fps=180 q=-0.0 size=N/A time=00:15:43.15 bitrate=N/A speed=7.52x    frame=22702 fps=180 q=-0.0 size=N/A time=00:15:46.86 bitrate=N/A speed=7.52x    frame=22792 fps=180 q=-0.0 size=N/A time=00:15:50.61 bitrate=N/A speed=7.52x    frame=22887 fps=180 q=-0.0 size=N/A time=00:15:54.57 bitrate=N/A speed=7.52x    frame=22979 fps=180 q=-0.0 size=N/A time=00:15:58.41 bitrate=N/A speed=7.52x    frame=23074 fps=180 q=-0.0 size=N/A time=00:16:02.37 bitrate=N/A speed=7.52x    frame=23170 fps=180 q=-0.0 size=N/A time=00:16:06.38 bitrate=N/A speed=7.52x    frame=23266 fps=180 q=-0.0 size=N/A time=00:16:10.38 bitrate=N/A speed=7.52x    frame=23359 fps=180 q=-0.0 size=N/A time=00:16:14.26 bitrate=N/A speed=7.52x    frame=23451 fps=180 q=-0.0 size=N/A time=00:16:18.10 bitrate=N/A speed=7.52x    frame=23535 fps=180 q=-0.0 size=N/A time=00:16:21.60 bitrate=N/A speed=7.52x    frame=23641 fps=180 q=-0.0 size=N/A time=00:16:26.02 bitrate=N/A speed=7.52x    frame=23734 fps=180 q=-0.0 size=N/A time=00:16:29.90 bitrate=N/A speed=7.52x    frame=23830 fps=180 q=-0.0 size=N/A time=00:16:33.90 bitrate=N/A speed=7.53x    frame=23922 fps=180 q=-0.0 size=N/A time=00:16:37.74 bitrate=N/A speed=7.53x    frame=24019 fps=180 q=-0.0 size=N/A time=00:16:41.79 bitrate=N/A speed=7.53x    frame=24103 fps=180 q=-0.0 size=N/A time=00:16:45.29 bitrate=N/A speed=7.52x    frame=24200 fps=180 q=-0.0 size=N/A time=00:16:49.34 bitrate=N/A speed=7.53x    frame=24301 fps=180 q=-0.0 size=N/A time=00:16:53.55 bitrate=N/A speed=7.53x    frame=24399 fps=181 q=-0.0 size=N/A time=00:16:57.64 bitrate=N/A speed=7.53x    frame=24492 fps=181 q=-0.0 size=N/A time=00:17:01.52 bitrate=N/A speed=7.53x    frame=24585 fps=181 q=-0.0 size=N/A time=00:17:05.39 bitrate=N/A speed=7.53x    frame=24672 fps=180 q=-0.0 size=N/A time=00:17:09.02 bitrate=N/A speed=7.53x    frame=24773 fps=181 q=-0.0 size=N/A time=00:17:13.24 bitrate=N/A speed=7.53x    frame=24865 fps=181 q=-0.0 size=N/A time=00:17:17.07 bitrate=N/A speed=7.53x    frame=24961 fps=181 q=-0.0 size=N/A time=00:17:21.08 bitrate=N/A speed=7.53x    frame=25059 fps=181 q=-0.0 size=N/A time=00:17:25.16 bitrate=N/A speed=7.53x    frame=25148 fps=181 q=-0.0 size=N/A time=00:17:28.88 bitrate=N/A speed=7.53x    frame=25244 fps=181 q=-0.0 size=N/A time=00:17:32.88 bitrate=N/A speed=7.53x    frame=25337 fps=181 q=-0.0 size=N/A time=00:17:36.76 bitrate=N/A speed=7.53x    frame=25434 fps=181 q=-0.0 size=N/A time=00:17:40.80 bitrate=N/A speed=7.53x    frame=25523 fps=181 q=-0.0 size=N/A time=00:17:44.52 bitrate=N/A speed=7.53x    frame=25619 fps=181 q=-0.0 size=N/A time=00:17:48.52 bitrate=N/A speed=7.53x    frame=25713 fps=181 q=-0.0 size=N/A time=00:17:52.44 bitrate=N/A speed=7.53x    frame=25806 fps=181 q=-0.0 size=N/A time=00:17:56.32 bitrate=N/A speed=7.53x    frame=25899 fps=181 q=-0.0 size=N/A time=00:18:00.20 bitrate=N/A speed=7.53x    frame=25997 fps=181 q=-0.0 size=N/A time=00:18:04.29 bitrate=N/A speed=7.53x    frame=26090 fps=181 q=-0.0 size=N/A time=00:18:08.17 bitrate=N/A speed=7.53x    frame=26189 fps=181 q=-0.0 size=N/A time=00:18:12.29 bitrate=N/A speed=7.53x    frame=26283 fps=181 q=-0.0 size=N/A time=00:18:16.22 bitrate=N/A speed=7.54x    frame=26381 fps=181 q=-0.0 size=N/A time=00:18:20.30 bitrate=N/A speed=7.54x    frame=26475 fps=181 q=-0.0 size=N/A time=00:18:24.22 bitrate=N/A speed=7.54x    frame=26565 fps=181 q=-0.0 size=N/A time=00:18:27.98 bitrate=N/A speed=7.54x    frame=26661 fps=181 q=-0.0 size=N/A time=00:18:31.98 bitrate=N/A speed=7.54x    frame=26753 fps=181 q=-0.0 size=N/A time=00:18:35.82 bitrate=N/A speed=7.54x    frame=26850 fps=181 q=-0.0 size=N/A time=00:18:39.86 bitrate=N/A speed=7.54x    frame=26941 fps=181 q=-0.0 size=N/A time=00:18:43.66 bitrate=N/A speed=7.54x    frame=27022 fps=181 q=-0.0 size=N/A time=00:18:47.04 bitrate=N/A speed=7.53x    frame=27123 fps=181 q=-0.0 size=N/A time=00:18:51.25 bitrate=N/A speed=7.54x    frame=27217 fps=181 q=-0.0 size=N/A time=00:18:55.17 bitrate=N/A speed=7.54x    frame=27305 fps=181 q=-0.0 size=N/A time=00:18:58.84 bitrate=N/A speed=7.53x    frame=27406 fps=181 q=-0.0 size=N/A time=00:19:03.05 bitrate=N/A speed=7.54x    frame=27501 fps=181 q=-0.0 size=N/A time=00:19:07.02 bitrate=N/A speed=7.54x    frame=27599 fps=181 q=-0.0 size=N/A time=00:19:11.10 bitrate=N/A speed=7.54x    frame=27691 fps=181 q=-0.0 size=N/A time=00:19:14.94 bitrate=N/A speed=7.54x    frame=27784 fps=181 q=-0.0 size=N/A time=00:19:18.82 bitrate=N/A speed=7.54x    frame=27869 fps=181 q=-0.0 size=N/A time=00:19:22.36 bitrate=N/A speed=7.54x    frame=27970 fps=181 q=-0.0 size=N/A time=00:19:26.58 bitrate=N/A speed=7.54x    frame=28066 fps=181 q=-0.0 size=N/A time=00:19:30.58 bitrate=N/A speed=7.54x    frame=28167 fps=181 q=-0.0 size=N/A time=00:19:34.79 bitrate=N/A speed=7.54x    frame=28268 fps=181 q=-0.0 size=N/A time=00:19:39.01 bitrate=N/A speed=7.54x    frame=28361 fps=181 q=-0.0 size=N/A time=00:19:42.89 bitrate=N/A speed=7.54x    frame=28461 fps=181 q=-0.0 size=N/A time=00:19:47.06 bitrate=N/A speed=7.54x    frame=28552 fps=181 q=-0.0 size=N/A time=00:19:50.85 bitrate=N/A speed=7.54x    frame=28648 fps=181 q=-0.0 size=N/A time=00:19:54.86 bitrate=N/A speed=7.54x    frame=28739 fps=181 q=-0.0 size=N/A time=00:19:58.65 bitrate=N/A speed=7.54x    frame=28841 fps=181 q=-0.0 size=N/A time=00:20:02.91 bitrate=N/A speed=7.55x    frame=28938 fps=181 q=-0.0 size=N/A time=00:20:06.95 bitrate=N/A speed=7.55x    frame=29032 fps=181 q=-0.0 size=N/A time=00:20:10.87 bitrate=N/A speed=7.55x    frame=29127 fps=181 q=-0.0 size=N/A time=00:20:14.83 bitrate=N/A speed=7.55x    frame=29221 fps=181 q=-0.0 size=N/A time=00:20:18.75 bitrate=N/A speed=7.55x    frame=29314 fps=181 q=-0.0 size=N/A time=00:20:22.63 bitrate=N/A speed=7.55x    frame=29404 fps=181 q=-0.0 size=N/A time=00:20:26.39 bitrate=N/A speed=7.55x    frame=29502 fps=181 q=-0.0 size=N/A time=00:20:30.47 bitrate=N/A speed=7.55x    frame=29601 fps=181 q=-0.0 size=N/A time=00:20:34.60 bitrate=N/A speed=7.55x    frame=29685 fps=181 q=-0.0 size=N/A time=00:20:38.11 bitrate=N/A speed=7.55x    frame=29790 fps=181 q=-0.0 size=N/A time=00:20:42.49 bitrate=N/A speed=7.55x    frame=29881 fps=181 q=-0.0 size=N/A time=00:20:46.28 bitrate=N/A speed=7.55x    frame=29983 fps=181 q=-0.0 size=N/A time=00:20:50.54 bitrate=N/A speed=7.55x    frame=30079 fps=181 q=-0.0 size=N/A time=00:20:54.54 bitrate=N/A speed=7.55x    frame=30175 fps=181 q=-0.0 size=N/A time=00:20:58.54 bitrate=N/A speed=7.55x    frame=30267 fps=181 q=-0.0 size=N/A time=00:21:02.38 bitrate=N/A speed=7.55x    frame=30357 fps=181 q=-0.0 size=N/A time=00:21:06.13 bitrate=N/A speed=7.55x    frame=30458 fps=181 q=-0.0 size=N/A time=00:21:10.35 bitrate=N/A speed=7.55x    frame=30552 fps=181 q=-0.0 size=N/A time=00:21:14.27 bitrate=N/A speed=7.55x    frame=30648 fps=181 q=-0.0 size=N/A time=00:21:18.27 bitrate=N/A speed=7.55x    frame=30742 fps=181 q=-0.0 size=N/A time=00:21:22.19 bitrate=N/A speed=7.55x    frame=30839 fps=181 q=-0.0 size=N/A time=00:21:26.24 bitrate=N/A speed=7.56x    frame=30935 fps=181 q=-0.0 size=N/A time=00:21:30.24 bitrate=N/A speed=7.56x    frame=31018 fps=181 q=-0.0 size=N/A time=00:21:33.70 bitrate=N/A speed=7.55x    frame=31120 fps=181 q=-0.0 size=N/A time=00:21:37.96 bitrate=N/A speed=7.56x    frame=31216 fps=181 q=-0.0 size=N/A time=00:21:41.96 bitrate=N/A speed=7.56x    frame=31308 fps=181 q=-0.0 size=N/A time=00:21:45.80 bitrate=N/A speed=7.56x    frame=31405 fps=181 q=-0.0 size=N/A time=00:21:49.85 bitrate=N/A speed=7.56x    frame=31501 fps=181 q=-0.0 size=N/A time=00:21:53.85 bitrate=N/A speed=7.56x    frame=31596 fps=181 q=-0.0 size=N/A time=00:21:57.81 bitrate=N/A speed=7.56x    frame=31686 fps=181 q=-0.0 size=N/A time=00:22:01.57 bitrate=N/A speed=7.56x    frame=31786 fps=181 q=-0.0 size=N/A time=00:22:05.74 bitrate=N/A speed=7.56x    frame=31881 fps=181 q=-0.0 size=N/A time=00:22:09.70 bitrate=N/A speed=7.56x    frame=31974 fps=181 q=-0.0 size=N/A time=00:22:13.58 bitrate=N/A speed=7.56x    frame=32063 fps=181 q=-0.0 size=N/A time=00:22:17.29 bitrate=N/A speed=7.56x    frame=32166 fps=181 q=-0.0 size=N/A time=00:22:21.59 bitrate=N/A speed=7.56x    frame=32260 fps=181 q=-0.0 size=N/A time=00:22:25.51 bitrate=N/A speed=7.56x    frame=32348 fps=181 q=-0.0 size=N/A time=00:22:29.18 bitrate=N/A speed=7.56x    frame=32447 fps=181 q=-0.0 size=N/A time=00:22:33.31 bitrate=N/A speed=7.56x    frame=32537 fps=181 q=-0.0 size=N/A time=00:22:37.06 bitrate=N/A speed=7.56x    frame=32634 fps=181 q=-0.0 size=N/A time=00:22:41.10 bitrate=N/A speed=7.56x    frame=32724 fps=181 q=-0.0 size=N/A time=00:22:44.86 bitrate=N/A speed=7.56x    frame=32818 fps=181 q=-0.0 size=N/A time=00:22:48.78 bitrate=N/A speed=7.56x    frame=32912 fps=181 q=-0.0 size=N/A time=00:22:52.70 bitrate=N/A speed=7.56x    frame=33006 fps=181 q=-0.0 size=N/A time=00:22:56.62 bitrate=N/A speed=7.56x    frame=33094 fps=181 q=-0.0 size=N/A time=00:23:00.29 bitrate=N/A speed=7.56x    frame=33193 fps=181 q=-0.0 size=N/A time=00:23:04.42 bitrate=N/A speed=7.56x    frame=33279 fps=181 q=-0.0 size=N/A time=00:23:08.01 bitrate=N/A speed=7.56x    frame=33379 fps=181 q=-0.0 size=N/A time=00:23:12.18 bitrate=N/A speed=7.56x    frame=33475 fps=181 q=-0.0 size=N/A time=00:23:16.18 bitrate=N/A speed=7.56x    frame=33566 fps=181 q=-0.0 size=N/A time=00:23:19.98 bitrate=N/A speed=7.56x    frame=33650 fps=181 q=-0.0 size=N/A time=00:23:23.48 bitrate=N/A speed=7.56x    frame=33752 fps=181 q=-0.0 size=N/A time=00:23:27.73 bitrate=N/A speed=7.56x    frame=33847 fps=181 q=-0.0 size=N/A time=00:23:31.70 bitrate=N/A speed=7.56x    frame=33931 fps=181 q=-0.0 size=N/A time=00:23:35.20 bitrate=N/A speed=7.56x    [Parsed_ssim_10 @ 000001e37971dbc0] SSIM Y:0.990676 (20.303830) U:0.993356 (21.775748) V:0.993995 (22.214623) All:0.991676 (20.796458)
[out#0/null @ 000001e37949aac0] video:14630KiB audio:266324KiB subtitle:0KiB other streams:0KiB global headers:0KiB muxing overhead: unknown
frame=34047 fps=181 q=-0.0 Lsize=N/A time=00:23:40.04 bitrate=N/A speed=7.56x    
